<?xml version="1.0" encoding="utf-8"?>
<!-- Generator: Adobe Illustrator 16.0.0, SVG Export Plug-In . SVG Version: 6.00 Build 0)  -->
<!DOCTYPE svg PUBLIC "-//W3C//DTD SVG 1.1//EN" "http://www.w3.org/Graphics/SVG/1.1/DTD/svg11.dtd">
<svg version="1.1" id="Layer_1" xmlns="http://www.w3.org/2000/svg" xmlns:xlink="http://www.w3.org/1999/xlink" x="0px" y="0px"
	 width="30px" height="30px" viewBox="0 0 30 30" enable-background="new 0 0 30 30" xml:space="preserve">
<g>
	<path fill="#ED1C26" d="M14.977,0C6.707,0,0,6.716,0,15c0,8.282,6.706,15,14.977,15c8.272,0,14.978-6.718,14.978-15
		C29.955,6.716,23.249,0,14.977,0z M14.977,4.485c2.738,0,4.956,2.222,4.956,4.962c0,2.741-2.218,4.962-4.956,4.962
		c-2.735,0-4.952-2.222-4.952-4.962C10.025,6.708,12.242,4.485,14.977,4.485z M14.975,26.079c-2.73,0-5.23-0.996-7.159-2.646
		c-0.469-0.401-0.74-0.987-0.74-1.605c0-2.778,2.245-5.002,5.02-5.002h5.766c2.775,0,5.013,2.224,5.013,5.002
		c0,0.62-0.271,1.204-0.74,1.605C20.205,25.083,17.704,26.079,14.975,26.079z"/>
</g>
</svg>
