<?xml version="1.0" encoding="utf-8"?>
<!-- Generator: Adobe Illustrator 16.0.0, SVG Export Plug-In . SVG Version: 6.00 Build 0)  -->
<!DOCTYPE svg PUBLIC "-//W3C//DTD SVG 1.1//EN" "http://www.w3.org/Graphics/SVG/1.1/DTD/svg11.dtd">
<svg version="1.1" id="Layer_1" xmlns="http://www.w3.org/2000/svg" xmlns:xlink="http://www.w3.org/1999/xlink" x="0px" y="0px"
	 width="150px" height="150px" viewBox="0 0 150 150" enable-background="new 0 0 150 150" xml:space="preserve">
<g>
	<g>
		
			<rect x="21.36" y="105.861" transform="matrix(-0.6926 -0.7213 0.7213 -0.6926 -7.6516 212.679)" fill="#373636" width="40.255" height="4.217"/>
	</g>
	<g>
		<path fill="#373636" d="M21.186,99.559C13.168,107.26,12.91,120,20.61,128.018c7.7,8.02,20.441,8.277,28.459,0.576l3.353-3.219
			L24.539,96.34L21.186,99.559z"/>
	</g>
	<g>
		<polygon fill="#373636" points="40.843,67.141 42.057,73.461 32.219,89.184 34.945,92.023 45.664,74.893 49.573,72.695 
			50.596,78.77 38.165,95.377 40.844,98.166 53.343,81.469 59.813,80.295 59.183,88.33 44.729,102.211 47.372,104.963 
			61.826,91.084 69.881,90.779 68.447,97.197 51.256,109.01 53.936,111.799 71.032,100.051 77.059,101.318 74.706,105.135 
			57.156,115.152 59.882,117.99 75.99,108.797 82.256,110.266 124.936,90.119 135,76.791 120.498,75.832 126.4,61.234 
			106.877,62.12 109.011,43.126 89.945,44.489 91.622,25.019 76.797,30.324 76.427,15.795 62.701,25.312 		"/>
	</g>
</g>
</svg>
