<?xml version="1.0" encoding="utf-8"?>
<!-- Generator: Adobe Illustrator 16.0.0, SVG Export Plug-In . SVG Version: 6.00 Build 0)  -->
<!DOCTYPE svg PUBLIC "-//W3C//DTD SVG 1.1//EN" "http://www.w3.org/Graphics/SVG/1.1/DTD/svg11.dtd">
<svg version="1.1" id="Layer_1" xmlns="http://www.w3.org/2000/svg" xmlns:xlink="http://www.w3.org/1999/xlink" x="0px" y="0px"
	 width="150px" height="150px" viewBox="0 0 150 150" enable-background="new 0 0 150 150" xml:space="preserve">
<g>
	<path fill="#373636" d="M73.5,73.499v-14.09c-13.448-0.518-21.201-7.869-28.689-15.008c-4.301-4.1-8.421-7.99-13.477-10.528
		c-9.8,10.402-15.918,24.299-16.295,39.626H73.5z"/>
	<path fill="#373636" d="M73.5,90.59V76.5H15.038c0.377,15.328,6.495,29.225,16.295,39.625c5.056-2.537,9.176-6.428,13.477-10.527
		C52.299,98.459,60.052,91.107,73.5,90.59z"/>
	<path fill="#373636" d="M105.189,44.401C97.7,51.54,89.948,58.892,76.5,59.409v14.09h58.462
		c-0.377-15.327-6.495-29.224-16.295-39.626C113.611,36.411,109.49,40.303,105.189,44.401z"/>
	<path fill="#373636" d="M116.441,31.635C106.007,21.658,91.984,15.418,76.5,15.037v41.372c12.242-0.508,19.241-7.146,26.619-14.179
		C107.18,38.359,111.354,34.393,116.441,31.635z"/>
	<path fill="#373636" d="M76.5,76.5v14.09c13.448,0.518,21.2,7.869,28.689,15.008c4.301,4.1,8.42,7.99,13.478,10.527
		c9.8-10.4,15.918-24.297,16.295-39.625H76.5z"/>
	<path fill="#373636" d="M103.119,107.768c-7.378-7.031-14.377-13.67-26.619-14.178v41.373c15.484-0.383,29.506-6.621,39.941-16.598
		C111.354,115.605,107.18,111.639,103.119,107.768z"/>
	<path fill="#373636" d="M73.5,56.409V15.037c-15.484,0.381-29.506,6.621-39.942,16.598c5.089,2.759,9.262,6.726,13.322,10.597
		C54.258,49.263,61.258,55.901,73.5,56.409z"/>
	<path fill="#373636" d="M73.5,93.59c-12.242,0.508-19.242,7.146-26.62,14.18c-4.06,3.871-8.233,7.838-13.322,10.596
		c10.436,9.977,24.457,16.217,39.941,16.598L73.5,93.59L73.5,93.59z"/>
</g>
</svg>
