<?xml version="1.0" encoding="utf-8"?>
<!-- Generator: Adobe Illustrator 16.0.0, SVG Export Plug-In . SVG Version: 6.00 Build 0)  -->
<!DOCTYPE svg PUBLIC "-//W3C//DTD SVG 1.1//EN" "http://www.w3.org/Graphics/SVG/1.1/DTD/svg11.dtd">
<svg version="1.1" id="Layer_1" xmlns="http://www.w3.org/2000/svg" xmlns:xlink="http://www.w3.org/1999/xlink" x="0px" y="0px"
	 width="150px" height="150px" viewBox="0 0 150 150" enable-background="new 0 0 150 150" xml:space="preserve">
<g>
	<g>
		<path fill="#373636" d="M129.658,68.435c0-14.049-5.469-27.262-15.405-37.197c-9.938-9.938-23.144-15.408-37.201-15.408
			c-14.053,0-27.26,5.471-37.2,15.408C22.713,48.38,19.597,74.492,31.695,95l-18.706,18.695c-1.072,1.076-1.677,2.531-1.677,4.046
			c0,1.514,0.604,2.976,1.677,4.044l10.704,10.707c1.12,1.116,2.584,1.675,4.046,1.675c1.468,0,2.927-0.559,4.046-1.675l18.704-18.7
			c8.046,4.733,17.159,7.215,26.629,7.215h0.004c14.022,0,27.212-5.463,37.126-15.379C124.18,95.695,129.658,82.486,129.658,68.435z
			 M45.678,102.423l-17.938,17.935l-2.608-2.612l17.933-17.934c1.986-1.981,2.241-5.115,0.603-7.394
			c-3.948-5.483-6.345-11.619-7.308-17.894l34.582,34.578c-6.437-0.964-12.526-3.428-17.87-7.274
			C50.789,100.181,47.66,100.433,45.678,102.423z"/>
		<path fill="#373636" d="M125.576,107.949c-7.231,0-13.112,5.884-13.112,13.112c0,7.228,5.881,13.108,13.112,13.108
			c7.226,0,13.111-5.881,13.111-13.108C138.688,113.827,132.802,107.949,125.576,107.949z"/>
	</g>
</g>
</svg>
