<?xml version="1.0" encoding="utf-8"?>
<!-- Generator: Adobe Illustrator 16.0.0, SVG Export Plug-In . SVG Version: 6.00 Build 0)  -->
<!DOCTYPE svg PUBLIC "-//W3C//DTD SVG 1.1//EN" "http://www.w3.org/Graphics/SVG/1.1/DTD/svg11.dtd">
<svg version="1.1" id="Layer_1" xmlns="http://www.w3.org/2000/svg" xmlns:xlink="http://www.w3.org/1999/xlink" x="0px" y="0px"
	 width="150px" height="150px" viewBox="0 0 150 150" enable-background="new 0 0 150 150" xml:space="preserve">
<g>
	<g>
		<g>
			<path fill="#373636" d="M66.97,37.521c2.282,1.571,5.047,2.497,8.029,2.497c2.981,0,5.744-0.925,8.029-2.497
				c-2.176-1.828-4.975-2.931-8.029-2.931S69.143,35.692,66.97,37.521z"/>
			<path fill="#373636" d="M83.027,14.19c-2.287-1.575-5.048-2.501-8.03-2.501c-2.983,0-5.747,0.926-8.028,2.501
				c2.173,1.825,4.974,2.931,8.028,2.931C78.053,17.121,80.852,16.015,83.027,14.19z"/>
			<path fill="#373636" d="M64.463,35.301c2.804-2.506,6.487-4.046,10.536-4.046s7.731,1.54,10.535,4.046
				c2.25-2.506,3.633-5.812,3.633-9.447s-1.383-6.938-3.633-9.447c-2.804,2.509-6.486,4.045-10.535,4.045s-7.731-1.539-10.536-4.045
				c-2.25,2.509-3.632,5.811-3.632,9.447S62.213,32.794,64.463,35.301z"/>
			<path fill="#373636" d="M136.081,125.323l-29.369-29.368c-1.005-1.004-2.229-1.646-3.509-1.967
				c-7.247-9.085-8.822-19.157-9.142-23.213c2.481-10.55,0.175-22.821-6.615-33.677c-2.558,2.833-6.063,4.782-10.027,5.354
				l1.45,1.451l-6.535,6.533l-6.535-6.534l2.604-2.604c-1.332-0.569-2.566-1.315-3.696-2.193l-1.853,1.854l-6.533-6.536l2.888-2.89
				c-0.557-1.548-0.892-3.199-0.968-4.918l-4.865,4.862l-6.535-6.533l6.02-6.018c0.467,0.106,0.933,0.245,1.4,0.369l4.137,4.137
				c0.439-3.04,1.681-5.817,3.52-8.099c-14.841-6.153-30.855-4.567-41.005,5.584C6.475,35.359,9.292,61.665,27.19,79.565
				c12.719,12.717,29.666,17.778,43.6,14.49c4.059,0.315,14.089,1.873,23.199,9.148c0.323,1.279,0.957,2.505,1.962,3.51
				l29.372,29.369c2.972,2.971,7.785,2.971,10.76,0C139.055,133.11,139.055,128.297,136.081,125.323z M88.425,66.531l-3.67-3.671
				l3.86-3.854C88.835,61.574,88.777,64.095,88.425,66.531z M87.323,71.313c-1.004,3.083-2.56,5.927-4.653,8.409l-7.389-7.386
				l6.536-6.531L87.323,71.313z M81.814,46.847l5.653,5.652c0.124,0.466,0.256,0.932,0.362,1.4l-6.016,6.016l-6.537-6.534
				L81.814,46.847z M78.869,62.86l-6.535,6.534l-6.535-6.537l6.535-6.531L78.869,62.86z M40.957,62.857l-6.539,6.537l-6.532-6.531
				l6.535-6.534L40.957,62.857z M27.888,43.901l6.534-6.534l6.535,6.534l-6.535,6.537L27.888,43.901z M37.365,53.38l6.536-6.534
				l6.534,6.534l-6.534,6.533L37.365,53.38z M53.377,56.323l6.535,6.534l-6.534,6.537l-6.535-6.537L53.377,56.323z M62.857,65.805
				l6.535,6.534l-6.535,6.531l-6.534-6.534L62.857,65.805z M69.39,53.38l-6.533,6.533l-6.534-6.534l6.532-6.533L69.39,53.38z
				 M53.378,37.37l6.534,6.534l-6.534,6.533l-6.536-6.534L53.378,37.37z M50.435,34.421l-6.535,6.537l-6.534-6.537l6.534-6.533
				L50.435,34.421z M47.752,18.146L43.896,22l-3.669-3.668C42.663,17.981,45.185,17.925,47.752,18.146z M35.447,19.438l5.505,5.508
				l-6.531,6.534l-7.39-7.389C29.521,21.998,32.361,20.443,35.447,19.438z M24.087,27.033l7.387,7.389l-6.531,6.534l-5.512-5.507
				C20.44,32.361,21.991,29.521,24.087,27.033z M18.327,40.233l3.669,3.667l-3.855,3.86C17.919,45.186,17.975,42.666,18.327,40.233z
				 M18.923,52.867l6.021-6.021l6.53,6.534l-6.534,6.533l-5.651-5.649C19.165,53.799,19.027,53.33,18.923,52.867z M30.161,73.653
				c-2.162-2.349-4.07-4.829-5.666-7.4l0.447-0.447l6.532,6.534L30.161,73.653z M40.506,82.263
				c-2.577-1.595-5.051-3.504-7.402-5.665l1.314-1.312l6.534,6.534L40.506,82.263z M37.364,72.339l6.535-6.534l6.535,6.534
				l-6.535,6.531L37.364,72.339z M52.494,87.471l-5.652-5.653l6.535-6.535l6.535,6.535l-6.021,6.017
				C53.428,87.728,52.96,87.592,52.494,87.471z M58.997,88.618l3.859-3.861l3.669,3.67C64.095,88.78,61.569,88.838,58.997,88.618z
				 M71.313,87.326l-5.509-5.509l6.532-6.535l7.386,7.389C77.236,84.767,74.397,86.317,71.313,87.326z M95.949,95.954
				c-0.389,0.392-0.721,0.815-1.004,1.265c-5.143-3.596-10.373-5.711-14.793-6.927c2.047-1.24,3.958-2.712,5.69-4.445
				c1.734-1.732,3.206-3.65,4.446-5.69c1.215,4.422,3.329,9.65,6.92,14.79C96.764,95.234,96.342,95.566,95.949,95.954z"/>
		</g>
	</g>
</g>
</svg>
